<mxfile host="Electron" agent="Mozilla/5.0 (X11; Linux x86_64) AppleWebKit/537.36 (KHTML, like Gecko) draw.io/27.0.9 Chrome/134.0.6998.205 Electron/35.4.0 Safari/537.36" version="27.0.9">
  <diagram name="Example 1" id="RuYSnL698J5DEAgA4fre">
    <mxGraphModel dx="874" dy="632" grid="1" gridSize="10" guides="1" tooltips="1" connect="1" arrows="1" fold="1" page="1" pageScale="1" pageWidth="1169" pageHeight="827" math="0" shadow="0">
      <root>
        <mxCell id="0" />
        <mxCell id="1" parent="0" />
        <mxCell id="yDKIogX2wdGKnFXzXqXA-6" style="edgeStyle=orthogonalEdgeStyle;rounded=0;orthogonalLoop=1;jettySize=auto;html=1;entryX=0.25;entryY=0;entryDx=0;entryDy=0;exitX=0.145;exitY=1;exitDx=0;exitDy=-4.35;exitPerimeter=0;dashed=1;dashPattern=8 8;" parent="1" source="yDKIogX2wdGKnFXzXqXA-1" target="yDKIogX2wdGKnFXzXqXA-5" edge="1">
          <mxGeometry relative="1" as="geometry" />
        </mxCell>
        <mxCell id="yDKIogX2wdGKnFXzXqXA-10" style="edgeStyle=orthogonalEdgeStyle;rounded=0;orthogonalLoop=1;jettySize=auto;html=1;exitX=1;exitY=0.5;exitDx=0;exitDy=0;exitPerimeter=0;entryX=0;entryY=0.5;entryDx=0;entryDy=0;dashed=1;dashPattern=8 8;" parent="1" source="yDKIogX2wdGKnFXzXqXA-1" target="yDKIogX2wdGKnFXzXqXA-9" edge="1">
          <mxGeometry relative="1" as="geometry" />
        </mxCell>
        <mxCell id="yDKIogX2wdGKnFXzXqXA-1" value="Fluss&lt;div&gt;Analytics&lt;/div&gt;" style="shape=cylinder3;whiteSpace=wrap;html=1;boundedLbl=1;backgroundOutline=1;size=15;shadow=1;sketch=1;curveFitting=1;jiggle=2;" parent="1" vertex="1">
          <mxGeometry x="420" y="280" width="80" height="80" as="geometry" />
        </mxCell>
        <mxCell id="yDKIogX2wdGKnFXzXqXA-7" style="edgeStyle=orthogonalEdgeStyle;rounded=0;orthogonalLoop=1;jettySize=auto;html=1;dashed=1;dashPattern=8 8;" parent="1" source="yDKIogX2wdGKnFXzXqXA-3" target="yDKIogX2wdGKnFXzXqXA-1" edge="1">
          <mxGeometry relative="1" as="geometry" />
        </mxCell>
        <mxCell id="yDKIogX2wdGKnFXzXqXA-3" value="&amp;nbsp;Order Generator&lt;br&gt;&lt;div&gt;&amp;lt;&amp;lt;producer&amp;gt;&amp;gt;&lt;/div&gt;" style="rounded=0;whiteSpace=wrap;html=1;shadow=1;sketch=1;curveFitting=1;jiggle=2;" parent="1" vertex="1">
          <mxGeometry x="200" y="360" width="120" height="44" as="geometry" />
        </mxCell>
        <mxCell id="yDKIogX2wdGKnFXzXqXA-5" value="Aggregate Customers&lt;div&gt;by City&lt;br&gt;&lt;div&gt;&amp;lt;&amp;lt;enricher&amp;gt;&amp;gt;&lt;/div&gt;&lt;/div&gt;" style="rounded=0;whiteSpace=wrap;html=1;shadow=1;sketch=1;curveFitting=1;jiggle=2;" parent="1" vertex="1">
          <mxGeometry x="400" y="414" width="120" height="60" as="geometry" />
        </mxCell>
        <mxCell id="yDKIogX2wdGKnFXzXqXA-8" style="edgeStyle=orthogonalEdgeStyle;rounded=0;orthogonalLoop=1;jettySize=auto;html=1;exitX=0.75;exitY=0;exitDx=0;exitDy=0;entryX=0.855;entryY=1;entryDx=0;entryDy=-4.35;entryPerimeter=0;dashed=1;dashPattern=8 8;" parent="1" source="yDKIogX2wdGKnFXzXqXA-5" target="yDKIogX2wdGKnFXzXqXA-1" edge="1">
          <mxGeometry relative="1" as="geometry" />
        </mxCell>
        <mxCell id="yDKIogX2wdGKnFXzXqXA-9" value="Present Customers&lt;div&gt;&amp;lt;&amp;lt;consumer&amp;gt;&amp;gt;&lt;/div&gt;" style="rounded=0;whiteSpace=wrap;html=1;shadow=1;sketch=1;curveFitting=1;jiggle=2;" parent="1" vertex="1">
          <mxGeometry x="570" y="290" width="120" height="60" as="geometry" />
        </mxCell>
        <mxCell id="yDKIogX2wdGKnFXzXqXA-15" value="&lt;h1 style=&quot;margin-top: 0px;&quot;&gt;Ecommerce Stream Analytics&lt;/h1&gt;&lt;p&gt;&amp;nbsp;1-&amp;nbsp;Customers generation&lt;/p&gt;&lt;p&gt;2 - Product Generation&lt;/p&gt;&lt;p&gt;3 - Order generation using products and customers&amp;nbsp;&amp;nbsp;&lt;/p&gt;&lt;p&gt;4 - Sales generation using order and products&amp;nbsp;&lt;/p&gt;" style="text;html=1;whiteSpace=wrap;overflow=hidden;rounded=0;" parent="1" vertex="1">
          <mxGeometry x="40" y="30" width="440" height="180" as="geometry" />
        </mxCell>
        <mxCell id="xcUPcsg86wtSEuvePAsF-1" value="&amp;nbsp;Producer Generator&lt;br&gt;&lt;div&gt;&amp;lt;&amp;lt;producer&amp;gt;&amp;gt;&lt;/div&gt;" style="rounded=0;whiteSpace=wrap;html=1;shadow=1;sketch=1;curveFitting=1;jiggle=2;" parent="1" vertex="1">
          <mxGeometry x="200" y="300" width="120" height="40" as="geometry" />
        </mxCell>
        <mxCell id="xcUPcsg86wtSEuvePAsF-2" value="Customer Generator&lt;br&gt;&lt;div&gt;&amp;lt;&amp;lt;producer&amp;gt;&amp;gt;&lt;/div&gt;" style="rounded=0;whiteSpace=wrap;html=1;shadow=1;sketch=1;curveFitting=1;jiggle=2;" parent="1" vertex="1">
          <mxGeometry x="200" y="240" width="120" height="40" as="geometry" />
        </mxCell>
        <mxCell id="xcUPcsg86wtSEuvePAsF-3" style="edgeStyle=orthogonalEdgeStyle;rounded=0;orthogonalLoop=1;jettySize=auto;html=1;entryX=0;entryY=0.5;entryDx=0;entryDy=0;entryPerimeter=0;dashed=1;dashPattern=8 8;" parent="1" source="xcUPcsg86wtSEuvePAsF-2" target="yDKIogX2wdGKnFXzXqXA-1" edge="1">
          <mxGeometry relative="1" as="geometry" />
        </mxCell>
        <mxCell id="xcUPcsg86wtSEuvePAsF-4" style="edgeStyle=orthogonalEdgeStyle;rounded=0;orthogonalLoop=1;jettySize=auto;html=1;entryX=0;entryY=0.5;entryDx=0;entryDy=0;entryPerimeter=0;dashed=1;dashPattern=8 8;" parent="1" source="xcUPcsg86wtSEuvePAsF-1" target="yDKIogX2wdGKnFXzXqXA-1" edge="1">
          <mxGeometry relative="1" as="geometry" />
        </mxCell>
      </root>
    </mxGraphModel>
  </diagram>
</mxfile>
